<svg xmlns="http://www.w3.org/2000/svg" viewBox="0 0 1536 512" width="100%" height="100%">
  <defs>
    <linearGradient id="tpbBg" x1="0%" y1="0%" x2="100%" y2="100%">
      <stop offset="0%" style="stop-color:#1a1a1a"/>
      <stop offset="100%" style="stop-color:#000000"/>
    </linearGradient>
  </defs>

  <!-- Background -->
  <rect x="0" y="0" width="1536" height="512" rx="64" fill="url(#tpbBg)"/>

  <!-- Pirate ship hull (left side) -->
  <path d="M 90 400 L 100 450 Q 256 510 412 450 L 422 400 Z" fill="#f0c000"/>
  <line x1="90" y1="400" x2="422" y2="400" stroke="#000" stroke-width="2"/>

  <!-- Three masts -->
  <line x1="160" y1="400" x2="160" y2="160" stroke="#f0c000" stroke-width="6"/>
  <line x1="256" y1="400" x2="256" y2="120" stroke="#f0c000" stroke-width="6"/>
  <line x1="352" y1="400" x2="352" y2="160" stroke="#f0c000" stroke-width="6"/>

  <!-- Cassette tape as sail -->
  <rect x="170" y="185" width="172" height="120" rx="8" fill="#f0c000" stroke="#000" stroke-width="3"/>
  <rect x="186" y="201" width="140" height="48" rx="3" fill="#1a1a1a"/>
  <circle cx="208" cy="275" r="14" fill="#1a1a1a"/>
  <circle cx="208" cy="275" r="5" fill="#f0c000"/>
  <circle cx="304" cy="275" r="14" fill="#1a1a1a"/>
  <circle cx="304" cy="275" r="5" fill="#f0c000"/>
  <line x1="222" y1="275" x2="290" y2="275" stroke="#1a1a1a" stroke-width="3"/>
  <!-- M letter on cassette label -->
  <path d="M 218 239 L 218 211 L 234 233 L 256 211 L 278 233 L 294 211 L 294 239"
        fill="none" stroke="#f0c000" stroke-width="4" stroke-linecap="round" stroke-linejoin="round"/>

  <!-- Brand text on the right, vertically centered -->
  <text x="512" y="320" font-family="Georgia, 'Times New Roman', serif"
        font-weight="900" font-style="italic" font-size="180" fill="#f0c000"
        letter-spacing="4">
    The MIP Bay
  </text>
</svg>
