<svg xmlns="http://www.w3.org/2000/svg" viewBox="0 0 512 512" width="100%" height="100%">
  <defs>
    <linearGradient id="tpbBg" x1="0%" y1="0%" x2="100%" y2="100%">
      <stop offset="0%" style="stop-color:#1a1a1a"/>
      <stop offset="100%" style="stop-color:#000000"/>
    </linearGradient>
  </defs>

  <!-- Background -->
  <rect x="0" y="0" width="512" height="512" rx="64" fill="url(#tpbBg)"/>

  <!-- Pirate ship hull -->
  <path d="M 90 320 L 100 360 Q 256 410 422 360 L 432 320 Z" fill="#f0c000"/>

  <!-- Ship deck line -->
  <line x1="90" y1="320" x2="432" y2="320" stroke="#000" stroke-width="2"/>

  <!-- Three masts -->
  <line x1="160" y1="320" x2="160" y2="100" stroke="#f0c000" stroke-width="6"/>
  <line x1="256" y1="320" x2="256" y2="70" stroke="#f0c000" stroke-width="6"/>
  <line x1="352" y1="320" x2="352" y2="100" stroke="#f0c000" stroke-width="6"/>

  <!-- Cassette tape as sail (TPB iconic) -->
  <rect x="170" y="130" width="172" height="120" rx="8" fill="#f0c000" stroke="#000" stroke-width="3"/>
  <!-- Cassette label -->
  <rect x="186" y="146" width="140" height="48" rx="3" fill="#1a1a1a"/>
  <!-- Cassette reels -->
  <circle cx="208" cy="220" r="14" fill="#1a1a1a"/>
  <circle cx="208" cy="220" r="5" fill="#f0c000"/>
  <circle cx="304" cy="220" r="14" fill="#1a1a1a"/>
  <circle cx="304" cy="220" r="5" fill="#f0c000"/>
  <!-- Tape strip between reels -->
  <line x1="222" y1="220" x2="290" y2="220" stroke="#1a1a1a" stroke-width="3"/>
  <!-- M letter on cassette label -->
  <path d="M 218 184 L 218 156 L 234 178 L 256 156 L 278 178 L 294 156 L 294 184"
        fill="none" stroke="#f0c000" stroke-width="4" stroke-linecap="round" stroke-linejoin="round"/>

  <!-- Brand text -->
  <text x="256" y="430" font-family="Georgia, 'Times New Roman', serif"
        font-weight="900" font-style="italic" font-size="48" fill="#f0c000"
        text-anchor="middle" letter-spacing="1">
    The MIP Bay
  </text>
</svg>
