<svg xmlns="http://www.w3.org/2000/svg" viewBox="0 0 640 640">
  <rect width="640" height="640" rx="104" fill="#0a1530"/>
  <rect width="640" height="640" rx="104" fill="none" stroke="#0057B7" stroke-width="10"/>
  <g transform="translate(320 320) scale(1.9)">
    <g fill="#FFD700" stroke="#0057B7" stroke-width="3">
      <ellipse cx="0" cy="-110" rx="28" ry="65" transform="rotate(0)"/>
      <ellipse cx="0" cy="-110" rx="28" ry="65" transform="rotate(45)"/>
      <ellipse cx="0" cy="-110" rx="28" ry="65" transform="rotate(90)"/>
      <ellipse cx="0" cy="-110" rx="28" ry="65" transform="rotate(135)"/>
      <ellipse cx="0" cy="-110" rx="28" ry="65" transform="rotate(180)"/>
      <ellipse cx="0" cy="-110" rx="28" ry="65" transform="rotate(225)"/>
      <ellipse cx="0" cy="-110" rx="28" ry="65" transform="rotate(270)"/>
      <ellipse cx="0" cy="-110" rx="28" ry="65" transform="rotate(315)"/>
    </g>
    <g fill="#FFD700" stroke="#0057B7" stroke-width="2" opacity="0.9">
      <ellipse cx="0" cy="-100" rx="18" ry="55" transform="rotate(22.5)"/>
      <ellipse cx="0" cy="-100" rx="18" ry="55" transform="rotate(67.5)"/>
      <ellipse cx="0" cy="-100" rx="18" ry="55" transform="rotate(112.5)"/>
      <ellipse cx="0" cy="-100" rx="18" ry="55" transform="rotate(157.5)"/>
      <ellipse cx="0" cy="-100" rx="18" ry="55" transform="rotate(202.5)"/>
      <ellipse cx="0" cy="-100" rx="18" ry="55" transform="rotate(247.5)"/>
      <ellipse cx="0" cy="-100" rx="18" ry="55" transform="rotate(292.5)"/>
      <ellipse cx="0" cy="-100" rx="18" ry="55" transform="rotate(337.5)"/>
    </g>
    <circle cx="0" cy="0" r="52" fill="#3a2810"/>
    <circle cx="0" cy="0" r="52" fill="none" stroke="#0057B7" stroke-width="3"/>
    <path d="M -28 20 L -28 -20 L -10 5 L 0 -13 L 10 5 L 28 -20 L 28 20"
          fill="none" stroke="#FFD700" stroke-width="6" stroke-linecap="round" stroke-linejoin="round"/>
  </g>
</svg>
