<svg xmlns="http://www.w3.org/2000/svg" viewBox="0 0 640 520">
  <defs>
    <mask id="sailMask">
      <rect width="640" height="520" fill="white"/>
      <rect x="268" y="118" width="124" height="66" rx="9" fill="black"/>
      <g stroke="black" stroke-width="16" stroke-linecap="round">
        <line x1="280" y1="234" x2="380" y2="200"/>
        <line x1="280" y1="200" x2="380" y2="234"/>
      </g>
    </mask>
  </defs>
  <g fill="#f0c000" opacity="0.12">
    <!-- bowsprit -->
    <path d="M150 296 L38 222 L52 210 L164 284 Z"/>
    <!-- masts -->
    <rect x="206" y="100" width="8" height="212"/>
    <rect x="325" y="38" width="11" height="280"/>
    <rect x="460" y="88" width="8" height="224"/>
    <!-- fore topsail -->
    <path d="M148 116 Q210 94 272 116 L262 202 Q210 222 158 202 Z"/>
    <!-- MAIN SAIL with emblem knockout -->
    <path mask="url(#sailMask)" d="M196 84 Q330 58 464 84 Q502 180 462 276 Q330 304 198 276 Q158 180 196 84 Z"/>
    <!-- cassette reels + window, drawn back inside the knockout -->
    <circle cx="302" cy="151" r="11"/>
    <circle cx="358" cy="151" r="11"/>
    <rect x="296" y="146" width="68" height="10" rx="5"/>
    <!-- mizzen lateen sail -->
    <path d="M470 126 Q566 196 570 214 Q532 264 474 278 Z"/>
    <!-- tattered pennants streaming right -->
    <path d="M330 38 L458 24 L420 40 L470 50 L330 56 Z"/>
    <path d="M210 100 L304 90 L276 102 L312 110 L210 116 Z"/>
    <path d="M463 88 L552 78 L526 90 L558 98 L463 104 Z"/>
    <!-- hull -->
    <path d="M108 306 L584 306 L548 396 Q330 432 152 396 Z"/>
    <path d="M500 252 L588 252 L584 308 L500 308 Z"/>
    <path d="M108 306 L84 260 L132 288 Z"/>
  </g>
</svg>
