<svg xmlns="http://www.w3.org/2000/svg" viewBox="0 0 240 150">
  <g fill="#caa200">
    <path d="M0 150 L0 104 Q60 92 120 100 Q180 108 240 98 L240 150 Z"/>
    <rect x="22.5" y="100" width="3" height="50"/><path d="M24 54 Q35 77 24 104 Q13 77 24 54 Z"/><line x1="24" y1="56" x2="17" y2="40" stroke="#caa200" stroke-width="2"/><line x1="24" y1="56" x2="24" y2="40" stroke="#caa200" stroke-width="2"/><line x1="24" y1="56" x2="31" y2="40" stroke="#caa200" stroke-width="2"/><rect x="70.5" y="80" width="3" height="70"/><path d="M72 34 Q83 57 72 84 Q61 57 72 34 Z"/><line x1="72" y1="36" x2="65" y2="20" stroke="#caa200" stroke-width="2"/><line x1="72" y1="36" x2="72" y2="20" stroke="#caa200" stroke-width="2"/><line x1="72" y1="36" x2="79" y2="20" stroke="#caa200" stroke-width="2"/><rect x="118.5" y="96" width="3" height="54"/><path d="M120 50 Q131 73 120 100 Q109 73 120 50 Z"/><line x1="120" y1="52" x2="113" y2="36" stroke="#caa200" stroke-width="2"/><line x1="120" y1="52" x2="120" y2="36" stroke="#caa200" stroke-width="2"/><line x1="120" y1="52" x2="127" y2="36" stroke="#caa200" stroke-width="2"/><rect x="166.5" y="76" width="3" height="74"/><path d="M168 30 Q179 53 168 80 Q157 53 168 30 Z"/><line x1="168" y1="32" x2="161" y2="16" stroke="#caa200" stroke-width="2"/><line x1="168" y1="32" x2="168" y2="16" stroke="#caa200" stroke-width="2"/><line x1="168" y1="32" x2="175" y2="16" stroke="#caa200" stroke-width="2"/><rect x="214.5" y="92" width="3" height="58"/><path d="M216 46 Q227 69 216 96 Q205 69 216 46 Z"/><line x1="216" y1="48" x2="209" y2="32" stroke="#caa200" stroke-width="2"/><line x1="216" y1="48" x2="216" y2="32" stroke="#caa200" stroke-width="2"/><line x1="216" y1="48" x2="223" y2="32" stroke="#caa200" stroke-width="2"/>
  </g>
</svg>
